<?xml version="1.0" encoding="UTF-8" standalone="no"?>
<!DOCTYPE svg PUBLIC "-//W3C//DTD SVG 1.1//EN"
 "http://www.w3.org/Graphics/SVG/1.1/DTD/svg11.dtd">
<!-- Generated by graphviz version 2.47.0 (20210316.0004)
 -->
<!-- Title: dependencies Pages: 1 -->
<svg width="504pt" height="287pt"
 viewBox="0.00 0.00 504.00 287.00" xmlns="http://www.w3.org/2000/svg" xmlns:xlink="http://www.w3.org/1999/xlink">
<g id="graph0" class="graph" transform="scale(1 1) rotate(0) translate(4 283)">
<title>dependencies</title>
<polygon fill="white" stroke="transparent" points="-4,4 -4,-283 500,-283 500,4 -4,4"/>
<text text-anchor="start" x="227.01" y="-42.4" font-family="Times-12" font-weight="bold" font-size="14.00">Legend</text>
<polygon fill="#ffffb3" stroke="transparent" points="14,-10 14,-30 34,-30 34,-10 14,-10"/>
<text text-anchor="start" x="37.63" y="-15.4" font-family="Times-12" font-size="14.00"> &#160;Declarations</text>
<polygon fill="#8dd3c7" stroke="transparent" points="127,-10 127,-30 147,-30 147,-10 127,-10"/>
<text text-anchor="start" x="150.73" y="-15.4" font-family="Times-12" font-size="14.00"> &#160;Module</text>
<polygon fill="#80b1d3" stroke="transparent" points="213,-10 213,-30 233,-30 233,-10 213,-10"/>
<text text-anchor="start" x="236.78" y="-15.4" font-family="Times-12" font-size="14.00"> &#160;Bootstrap</text>
<polygon fill="#fdb462" stroke="transparent" points="310,-10 310,-30 330,-30 330,-10 310,-10"/>
<text text-anchor="start" x="333.67" y="-15.4" font-family="Times-12" font-size="14.00"> &#160;Providers</text>
<polygon fill="#fb8072" stroke="transparent" points="406,-10 406,-30 426,-30 426,-10 406,-10"/>
<text text-anchor="start" x="429.73" y="-15.4" font-family="Times-12" font-size="14.00"> &#160;Exports</text>
<g id="clust7" class="cluster">
<title>cluster_PostModule</title>
<polygon fill="none" stroke="black" stroke-dasharray="1,5" points="311,-70 311,-206 457,-206 457,-70 311,-70"/>
</g>
<g id="clust12" class="cluster">
<title>cluster_PostModule_providers</title>
<polygon fill="none" stroke="black" points="319,-78 319,-130 449,-130 449,-78 319,-78"/>
</g>
<g id="clust1" class="cluster">
<title>cluster_AppModule</title>
<polygon fill="none" stroke="black" stroke-dasharray="1,5" points="39,-146 39,-271 295,-271 295,-146 39,-146"/>
</g>
<g id="clust3" class="cluster">
<title>cluster_AppModule_imports</title>
<polygon fill="none" stroke="black" points="185,-154 185,-206 287,-206 287,-154 185,-154"/>
</g>
<g id="clust6" class="cluster">
<title>cluster_AppModule_providers</title>
<polygon fill="none" stroke="black" points="47,-154 47,-206 177,-206 177,-154 47,-154"/>
</g>
<g id="clust13" class="cluster">
<title>cluster_TaskModule</title>
<polygon fill="none" stroke="black" stroke-dasharray="1,5" points="153,-70 153,-138 303,-138 303,-70 153,-70"/>
</g>
<g id="clust18" class="cluster">
<title>cluster_TaskModule_providers</title>
<polygon fill="none" stroke="black" points="161,-78 161,-130 295,-130 295,-78 161,-78"/>
</g>
<!-- PostModule -->
<g id="node1" class="node">
<title>PostModule</title>
<polygon fill="#8dd3c7" stroke="black" points="413.67,-198 410.67,-202 389.67,-202 386.67,-198 330.33,-198 330.33,-162 413.67,-162 413.67,-198"/>
<text text-anchor="middle" x="372" y="-175.8" font-family="Times,serif" font-size="14.00">PostModule</text>
</g>
<!-- AppModule -->
<g id="node3" class="node">
<title>AppModule</title>
<polygon fill="#8dd3c7" stroke="black" points="277.66,-263 274.66,-267 253.66,-267 250.66,-263 194.34,-263 194.34,-227 277.66,-227 277.66,-263"/>
<text text-anchor="middle" x="236" y="-240.8" font-family="Times,serif" font-size="14.00">AppModule</text>
</g>
<!-- PostModule&#45;&gt;AppModule -->
<g id="edge1" class="edge">
<title>PostModule&#45;&gt;AppModule</title>
<path fill="none" stroke="black" d="M372,-198.11C372,-217.34 372,-245 372,-245 372,-245 287.91,-245 287.91,-245"/>
<polygon fill="black" stroke="black" points="287.91,-241.5 277.91,-245 287.91,-248.5 287.91,-241.5"/>
</g>
<!-- TaskModule -->
<g id="node2" class="node">
<title>TaskModule</title>
<polygon fill="#8dd3c7" stroke="black" points="279.26,-198 276.26,-202 255.26,-202 252.26,-198 192.74,-198 192.74,-162 279.26,-162 279.26,-198"/>
<text text-anchor="middle" x="236" y="-175.8" font-family="Times,serif" font-size="14.00">TaskModule</text>
</g>
<!-- TaskModule&#45;&gt;AppModule -->
<g id="edge2" class="edge">
<title>TaskModule&#45;&gt;AppModule</title>
<path fill="none" stroke="black" d="M236,-198.11C236,-198.11 236,-216.99 236,-216.99"/>
<polygon fill="black" stroke="black" points="232.5,-216.99 236,-226.99 239.5,-216.99 232.5,-216.99"/>
</g>
<!-- AppService -->
<g id="node4" class="node">
<title>AppService</title>
<ellipse fill="#fdb462" stroke="black" cx="112" cy="-180" rx="56.74" ry="18"/>
<text text-anchor="middle" x="112" y="-175.8" font-family="Times,serif" font-size="14.00">AppService</text>
</g>
<!-- AppService&#45;&gt;AppModule -->
<g id="edge3" class="edge">
<title>AppService&#45;&gt;AppModule</title>
<path fill="none" stroke="black" d="M112,-198.11C112,-217.34 112,-245 112,-245 112,-245 184.02,-245 184.02,-245"/>
<polygon fill="black" stroke="black" points="184.02,-248.5 194.02,-245 184.02,-241.5 184.02,-248.5"/>
</g>
<!-- PostService -->
<g id="node5" class="node">
<title>PostService</title>
<ellipse fill="#fdb462" stroke="black" cx="384" cy="-104" rx="56.76" ry="18"/>
<text text-anchor="middle" x="384" y="-99.8" font-family="Times,serif" font-size="14.00">PostService</text>
</g>
<!-- PostService&#45;&gt;PostModule -->
<g id="edge4" class="edge">
<title>PostService&#45;&gt;PostModule</title>
<path fill="none" stroke="black" d="M372,-121.63C372,-121.63 372,-151.94 372,-151.94"/>
<polygon fill="black" stroke="black" points="368.5,-151.94 372,-161.94 375.5,-151.94 368.5,-151.94"/>
</g>
<!-- TaskService -->
<g id="node6" class="node">
<title>TaskService</title>
<ellipse fill="#fdb462" stroke="black" cx="228" cy="-104" rx="58.53" ry="18"/>
<text text-anchor="middle" x="228" y="-99.8" font-family="Times,serif" font-size="14.00">TaskService</text>
</g>
<!-- TaskService&#45;&gt;TaskModule -->
<g id="edge5" class="edge">
<title>TaskService&#45;&gt;TaskModule</title>
<path fill="none" stroke="black" d="M236,-122.01C236,-122.01 236,-151.85 236,-151.85"/>
<polygon fill="black" stroke="black" points="232.5,-151.85 236,-161.85 239.5,-151.85 232.5,-151.85"/>
</g>
</g>
</svg>
